# xmcd
#
# Track frame offsets: 
#        150
#        21104
#        53941
#        83798
#        169630
#        185909
#        207901
#
# Disc length: 3276 seconds
#
# Revision: 0
# Processed by: cddbd v1.5.2PL0 Copyright (c) Steve Scherf et al.
# Submitted via: ExactAudioCopy v0.95b3
#
DISCID=5a0cca07
DTITLE=Chicago  - Toronto - Disc 2
DYEAR=1900
DGENRE=
TTITLE0=All is well
TTITLE1=In the Country
TTITLE2=Song for Richard and his friends
TTITLE3=It better end soon
TTITLE4=Does Anybody really know what time it is?
TTITLE5=Questions 67 and 68
TTITLE6=25 Or 6 To 4
EXTD=
EXTT0=
EXTT1=
EXTT2=
EXTT3=
EXTT4=
EXTT5=
EXTT6=
PLAYORDER=
